<svg width="82" height="24" viewBox="0 0 82 24" fill="none" xmlns="http://www.w3.org/2000/svg">
	<path d="M28.3627 0.874678H28.7362C28.7362 0.897651 28.7362 0.920621 28.7362 0.943594C28.7133 2.37366 28.6909 3.80946 28.6689 5.25101C28.6441 6.71553 28.6208 8.18388 28.5988 9.65606C28.5769 11.1282 28.553 12.6119 28.5273 14.1071C28.5044 15.5974 28.481 17.0926 28.4572 18.5925L27.5801 18.66L26.703 18.7318L25.8202 18.8093L24.9303 18.8912C24.7891 18.1474 24.646 17.4022 24.501 16.6556L24.0804 14.4172C23.9402 13.6715 23.8004 12.9244 23.6611 12.1759L23.2448 9.93317H23.2262H23.2076H23.189H23.1704C23.1532 10.6884 23.1375 11.4465 23.1203 12.2032C23.1031 12.9598 23.0874 13.7237 23.0702 14.4847C23.053 15.2457 23.0373 16.0124 23.0201 16.782C23.003 17.5516 22.9858 18.3183 22.9686 19.0893L22.196 19.174L21.4334 19.2616C21.1801 19.2903 20.9283 19.3205 20.6751 19.3521L19.9124 19.4454C19.9124 19.4066 19.9124 19.3693 19.9124 19.3305C19.9506 17.799 19.9888 16.2708 20.0269 14.746C20.0651 13.2212 20.1032 11.7059 20.1414 10.2002C20.1414 10.1629 20.1414 10.1241 20.1414 10.0854C20.1795 8.54044 20.2182 6.99934 20.2573 5.46207C20.2964 3.9248 20.3345 2.39327 20.3717 0.867492H23.8615C23.9979 1.56338 24.1338 2.25735 24.2692 2.94941C24.4047 3.64147 24.5411 4.33401 24.6784 5.02703C24.8158 5.71908 24.9527 6.41018 25.0891 7.10033C25.2255 7.79047 25.3633 8.48061 25.5026 9.17076H25.5197H25.5369H25.5541H25.5713C25.5837 8.4787 25.597 7.78712 25.6113 7.09602C25.6256 6.40492 25.639 5.71525 25.6514 5.02703C25.6657 4.33784 25.6791 3.64865 25.6915 2.95946C25.7058 2.28942 25.7191 1.61363 25.7315 0.932105V0.893344H28.3513L28.3627 0.874678ZM16.8105 0.874678H15.1321C15.1321 0.916316 15.1321 0.957952 15.1321 0.998155V1.11445C15.1321 1.15322 15.1321 1.19055 15.1321 1.22788C15.1321 1.26521 15.1321 1.30255 15.1321 1.33988C15.0968 2.53447 15.0611 3.73097 15.0248 4.92939C14.9886 6.12781 14.9528 7.33341 14.9175 8.54619C14.8822 9.75801 14.846 10.9722 14.8088 12.1888C14.7716 13.4054 14.7344 14.6273 14.6972 15.8544C14.6972 15.9607 14.6886 16.0684 14.68 16.1746C14.6714 16.2809 14.6614 16.39 14.65 16.4977C14.6385 16.6054 14.6256 16.713 14.6113 16.8207C14.597 16.9284 14.5827 17.0361 14.5698 17.1438C14.563 17.1959 14.5515 17.2473 14.5355 17.2974C14.5215 17.3476 14.5013 17.3958 14.4754 17.441C14.4514 17.4833 14.4204 17.5211 14.3838 17.553C14.3462 17.5858 14.3031 17.6115 14.2565 17.6291L14.1964 17.6492L14.1349 17.6636L14.0748 17.6736C14.0552 17.675 14.0357 17.675 14.0161 17.6736C13.989 17.6765 13.9617 17.6765 13.9346 17.6736C13.9075 17.6678 13.8811 17.6592 13.8559 17.6478C13.8305 17.6357 13.8069 17.6202 13.7858 17.6018C13.7615 17.5822 13.7399 17.5595 13.7214 17.5343C13.7011 17.5078 13.6834 17.4795 13.6684 17.4496C13.6518 17.4186 13.6375 17.3865 13.6255 17.3534C13.6129 17.3187 13.6023 17.2832 13.594 17.2472C13.5867 17.2116 13.5814 17.1757 13.5783 17.1395C13.5783 17.0375 13.5668 16.9342 13.5626 16.8293C13.5583 16.7245 13.554 16.6298 13.5525 16.5293V16.5178C13.5525 16.4144 13.5525 16.3096 13.5525 16.2062C13.5525 16.1028 13.5525 15.9995 13.5525 15.8961C13.5888 14.6642 13.625 13.4341 13.6613 12.2061C13.6975 10.978 13.7347 9.75561 13.7729 8.53901C13.8101 7.32145 13.8473 6.10675 13.8845 4.89493C13.9217 3.68311 13.9584 2.47655 13.9947 1.27526C13.9947 1.24511 13.9947 1.21352 13.9947 1.18193C13.9947 1.15035 13.9947 1.11876 13.9947 1.08574C13.9947 1.05271 13.9947 1.02113 13.9947 0.988103C13.9947 0.95508 13.9947 0.919189 13.9947 0.884729H10.6294C10.6294 0.919189 10.6294 0.952205 10.6294 0.985229C10.6294 1.01825 10.6294 1.04984 10.6294 1.08C10.6294 1.11015 10.6294 1.1403 10.6294 1.17045C10.6294 1.20061 10.6294 1.22932 10.6294 1.25947C10.5855 2.58807 10.5421 3.91906 10.4992 5.25245C10.4563 6.58583 10.4124 7.92592 10.3676 9.2727C10.3247 10.6195 10.2808 11.9696 10.2359 13.3231C10.1911 14.6766 10.1477 16.0368 10.1057 17.4037C10.1057 17.5027 10.1057 17.6018 10.1057 17.7009C10.1057 17.8 10.1057 17.899 10.1057 17.9967C10.1057 18.0943 10.1057 18.1934 10.1172 18.2838C10.1286 18.3743 10.1301 18.4777 10.1386 18.571C10.1621 18.8765 10.2212 19.1781 10.3146 19.4698C10.3361 19.5344 10.359 19.5961 10.3848 19.655C10.4542 19.8212 10.5472 19.9765 10.6609 20.1159C10.8041 20.2876 10.9854 20.4233 11.1903 20.5122C11.2571 20.5415 11.326 20.566 11.3963 20.5854C11.4994 20.6151 11.6047 20.6367 11.7111 20.65C11.774 20.6572 11.8399 20.6615 11.9085 20.6644H12.0888C12.2047 20.6644 12.3221 20.6644 12.4408 20.6529C12.5596 20.6414 12.6769 20.6357 12.7971 20.6227C12.9173 20.6098 13.0346 20.5969 13.1533 20.5811H13.1948L13.5111 20.5395C13.7228 20.5122 13.9403 20.482 14.1492 20.449C14.3581 20.416 14.5784 20.3787 14.7873 20.3356C14.9962 20.2925 15.2166 20.2437 15.4269 20.192C15.6372 20.1403 15.8561 20.0714 16.0636 19.9953C16.1337 19.9709 16.2067 19.9465 16.2653 19.9192C16.324 19.8919 16.3927 19.8646 16.4542 19.8345C16.5724 19.7777 16.6867 19.7129 16.7962 19.6406C17.0037 19.5043 17.1882 19.3356 17.3427 19.141C17.4213 19.0426 17.4916 18.9379 17.5531 18.828C17.6183 18.7116 17.6752 18.5907 17.7233 18.4662C17.7755 18.3315 17.82 18.1939 17.8564 18.0541C17.8936 17.9105 17.9265 17.7526 17.9537 17.5874C17.9737 17.4568 17.9923 17.3247 18.0095 17.194C18.0266 17.0634 18.0395 16.9313 18.051 16.7992C18.0624 16.6671 18.0724 16.5364 18.081 16.4058C18.0896 16.2751 18.0939 16.1445 18.0968 16.0152C18.133 14.7709 18.1678 13.5265 18.2012 12.2821C18.2346 11.0378 18.268 9.80347 18.3014 8.57921C18.3348 7.35016 18.3677 6.12398 18.4001 4.90067C18.4325 3.67737 18.465 2.45932 18.4974 1.24655C18.4974 1.21639 18.4974 1.18624 18.4974 1.15609C18.4974 1.12594 18.4974 1.09579 18.4974 1.06421C18.4974 1.03262 18.4974 1.00102 18.4974 0.969437C18.4974 0.937849 18.4974 0.903388 18.4974 0.868929H16.8133L16.8105 0.874678ZM46.7886 1.99748V1.43607V0.877543H39.9751C39.9751 1.06707 39.9751 1.25372 39.9751 1.44181C39.9751 1.6299 39.9751 1.81513 39.9751 2.00322V3.14181H41.7307V6.86485C41.7307 8.10922 41.7307 9.35358 41.7307 10.5979C41.7307 11.8423 41.7307 13.0948 41.7307 14.3554C41.7307 15.6123 41.7307 16.8724 41.7307 18.1359H42.5892L43.4391 18.1474L44.2976 18.1632L45.1646 18.1833C45.157 16.9112 45.1499 15.6429 45.1432 14.3784C45.1365 13.114 45.1289 11.8562 45.1203 10.6051C45.1127 9.3531 45.1055 8.10348 45.0988 6.85624L45.0774 3.12315H45.5066H46.3651H46.7943C46.7943 2.92788 46.7943 2.73548 46.7943 2.54882L46.7886 1.99748ZM38.726 17.9507C38.726 17.9234 38.716 17.8962 38.7103 17.8703C38.7046 17.8445 38.7003 17.8172 38.6946 17.7913C38.5544 17.1625 38.4146 16.5336 38.2753 15.9047C38.2439 15.7611 38.2124 15.6175 38.1823 15.484C38.1523 15.3505 38.1194 15.2054 38.0893 15.0662C37.9463 14.4387 37.8032 13.8113 37.673 13.1853C37.5041 12.4195 37.3358 11.6537 37.1679 10.888C37 10.1222 36.8336 9.36076 36.6686 8.60361C36.6584 8.55867 36.6512 8.51311 36.6471 8.46722C36.6471 8.42127 36.6471 8.37389 36.6471 8.32364C36.6471 8.27338 36.6471 8.23031 36.6557 8.18006C36.6615 8.13468 36.6696 8.08963 36.68 8.04509L37.0091 6.68682C37.1207 6.23023 37.2309 5.77221 37.3425 5.31706C37.4541 4.86191 37.5657 4.40532 37.6758 3.95161C37.786 3.49789 37.899 3.04417 38.0092 2.59046L38.1122 2.16834C38.1466 2.02476 38.1809 1.88118 38.2153 1.7376C38.2496 1.59402 38.2854 1.45044 38.3211 1.30686C38.3569 1.16328 38.3927 1.01969 38.4284 0.866063H35.2249C35.1295 1.38678 35.0312 1.90845 34.9301 2.43109C34.829 2.95372 34.7308 3.47636 34.6354 3.99899C34.54 4.52163 34.4413 5.04809 34.3392 5.57838L34.043 7.15776H34.0044H33.9829H33.9615C33.9615 6.6337 33.9715 6.10819 33.9758 5.57838C33.9801 5.04857 33.9858 4.53311 33.9901 4.01047V3.99612C33.9901 3.47827 33.9949 2.9609 34.0044 2.44401L34.0173 0.881855H30.6721C30.652 2.32819 30.6325 3.77739 30.6134 5.22947C30.5943 6.68155 30.5743 8.14033 30.5533 9.60581C30.5333 11.0722 30.5137 12.542 30.4946 14.0152C30.4756 15.4883 30.4555 16.972 30.4346 18.4662L31.293 18.4159L32.1515 18.3685L33.01 18.3255L33.8842 18.2867L33.8928 17.3103L33.9014 16.3326C33.9071 15.6836 33.9128 15.036 33.9186 14.3899C33.9243 13.7438 33.9305 13.0991 33.9372 12.4559L33.9543 10.5305H34.0173C34.1298 11.1699 34.2433 11.8093 34.3578 12.4487L34.7012 14.3698L35.0446 16.2952C35.16 16.9385 35.2754 17.5817 35.3908 18.2249L36.2493 18.1991L37.0935 18.1776L37.9362 18.1618C38.2224 18.1618 38.4971 18.1517 38.779 18.1489C38.779 18.1158 38.7675 18.0857 38.7618 18.0555L38.726 17.9507ZM8.56192 3.5582C8.56192 3.64578 8.57193 3.7348 8.57336 3.82526C8.57336 4.08227 8.57336 4.34071 8.57336 4.60059C8.57336 4.86047 8.56334 5.11892 8.55619 5.3788C8.54903 5.63868 8.54044 5.89856 8.53186 6.15844C8.52327 6.41832 8.51327 6.67964 8.50468 6.93952C8.47606 7.79239 8.44791 8.64717 8.42025 9.50387C8.39259 10.3606 8.3635 11.2187 8.33297 12.0783C8.30245 12.9397 8.27288 13.8012 8.24427 14.6627C8.21565 15.5242 8.18512 16.3909 8.15269 17.263C8.15269 17.3793 8.14268 17.497 8.13696 17.6133C8.13123 17.7296 8.12266 17.8488 8.11407 17.9665C8.10549 18.0842 8.09403 18.202 8.08115 18.3197C8.06827 18.4375 8.05254 18.5552 8.03537 18.6729C8.0182 18.7907 8.00247 18.8739 7.98387 18.9701C7.93153 19.2435 7.85785 19.5124 7.76352 19.7742C7.65192 20.0847 7.49939 20.3788 7.30997 20.6486C7.22066 20.7744 7.12162 20.893 7.01378 21.0032C6.96084 21.0578 6.90647 21.1109 6.84924 21.1612C6.792 21.2114 6.73191 21.2588 6.67182 21.3048C6.41777 21.4944 6.1378 21.6462 5.84053 21.7556C5.76327 21.7857 5.68457 21.813 5.60731 21.8403C5.53005 21.8676 5.44992 21.892 5.37266 21.915C5.29539 21.9379 5.2167 21.9609 5.138 21.9825L4.90335 22.0399L3.75871 22.2998L2.61407 22.5654L1.46943 22.8368C1.08741 22.9286 0.705382 23.0234 0.324789 23.1239L0.251816 23.1411L0.17598 23.1598L0.0972963 23.1799L0.0114517 23.2C0.0476987 22.2189 0.0834687 21.2401 0.118762 20.2638C0.152147 19.3535 0.185047 18.4441 0.217479 17.5358C0.251818 16.5987 0.286153 15.663 0.320492 14.7288C0.354831 13.7945 0.388705 12.8617 0.422091 11.9304C0.422091 11.8629 0.422091 11.7954 0.422091 11.7279C0.487908 9.93891 0.552768 8.15469 0.616678 6.37525C0.683448 4.53455 0.750701 2.69767 0.818425 0.864626H4.66583H4.96631H5.26678H5.56724C5.6674 0.864626 5.76898 0.864623 5.86914 0.878981C5.91922 0.878981 5.9693 0.889036 6.01938 0.893344L6.16246 0.907698C6.26262 0.920621 6.36134 0.93498 6.46149 0.953645C6.56165 0.972311 6.65895 0.992412 6.75625 1.01682C7.02258 1.08466 7.27328 1.20363 7.49453 1.36716C7.53888 1.40018 7.58181 1.43608 7.6233 1.47341C7.6648 1.51074 7.74492 1.58253 7.80215 1.64283C7.89822 1.74778 7.98532 1.86065 8.06255 1.98024C8.10261 2.04054 8.13982 2.10372 8.17559 2.16977C8.26268 2.32854 8.33546 2.4948 8.39307 2.66656C8.41024 2.71825 8.42741 2.7685 8.44315 2.82163C8.45889 2.87475 8.47177 2.9408 8.48608 3.00111C8.50754 3.10161 8.52758 3.20212 8.54188 3.30693C8.55619 3.41175 8.55619 3.47061 8.56192 3.5582ZM5.20095 4.70684C5.20095 4.61495 5.20096 4.53167 5.18951 4.45558C5.18951 4.41825 5.18093 4.38091 5.17521 4.34645C5.16012 4.229 5.11959 4.11628 5.05646 4.01622C5.04267 3.9951 5.02685 3.97537 5.00923 3.95735C4.976 3.9214 4.93739 3.89088 4.89477 3.86689C4.87331 3.85541 4.8504 3.84536 4.82608 3.83531C4.71114 3.79548 4.58993 3.77699 4.46838 3.78075H4.28239H4.21799H4.14504C4.09925 5.07393 4.05156 6.36615 4.00196 7.65742V7.79095L3.86888 11.5513C3.82119 12.8541 3.7735 14.1587 3.7258 15.4653C3.67811 16.7719 3.63042 18.0857 3.58272 19.4066H3.61133H3.63709H3.68287C3.85567 19.3913 4.02585 19.3541 4.18938 19.2961C4.31254 19.2521 4.42038 19.1733 4.49987 19.0692C4.54042 19.0142 4.57316 18.9538 4.59716 18.8897C4.62664 18.8139 4.64914 18.7356 4.6644 18.6557C4.67442 18.6069 4.68301 18.5537 4.69016 18.4978C4.70161 18.4073 4.71163 18.3082 4.71736 18.1977C4.71736 18.1316 4.72593 18.0641 4.72736 17.9909C4.76838 16.8825 4.80844 15.7764 4.84755 14.6728C4.88666 13.5691 4.92577 12.4683 4.96488 11.3704C5.00208 10.2754 5.03975 9.18225 5.0779 8.09104C5.11606 6.99983 5.15374 5.91292 5.19094 4.83032C5.19953 4.79443 5.20095 4.74704 5.20095 4.70109V4.70684ZM81.3954 17.5085C81.3267 15.641 81.259 13.7797 81.1922 11.9246C81.1579 11 81.124 10.0772 81.0906 9.1564C81.0572 8.23557 81.0238 7.3157 80.9905 6.39678C80.9246 4.56469 80.8583 2.73787 80.7916 0.916313H77.8169C77.8322 1.34035 77.8475 1.76296 77.8627 2.18413C77.877 2.5919 77.8913 3.0011 77.9071 3.40887C77.9357 4.23972 77.9653 5.07105 77.9958 5.90286C78.0263 6.73467 78.0559 7.56792 78.0845 8.40261C78.115 9.23824 78.1446 10.0748 78.1732 10.9124H78.1188C78.0292 10.4826 77.9381 10.0552 77.8456 9.63022C77.754 9.19948 77.6638 8.77878 77.5723 8.35522C77.391 7.50905 77.2093 6.66863 77.0271 5.83395C76.8449 4.99927 76.6642 4.17129 76.4849 3.35001C76.3036 2.52872 76.1234 1.71223 75.944 0.900521H72.4686C72.5249 2.57563 72.5807 4.25504 72.636 5.93876C72.6913 7.62248 72.7481 9.31434 72.8063 11.0143C72.8492 12.2912 72.8921 13.571 72.935 14.8537L72.978 16.1359L73.0638 18.7203L73.1497 21.3048L73.9023 21.4483L74.6534 21.6005L75.4118 21.7599L76.1815 21.9236C76.1501 21.0162 76.1191 20.1121 76.0885 19.2113C76.058 18.3106 76.0265 17.4137 75.9941 16.5206C75.9636 15.6276 75.9326 14.7369 75.9011 13.8486C75.8696 12.9603 75.8391 12.0744 75.8095 11.1909H75.8639C76.0547 12.0955 76.2455 13.0048 76.4362 13.919C76.452 13.9979 76.4691 14.0769 76.4849 14.1559C76.6594 14.9963 76.833 15.8401 77.0057 16.6872C77.1965 17.6176 77.3872 18.5523 77.578 19.4913C77.7688 20.4303 77.9595 21.3756 78.1503 22.327L79.0288 22.5295L79.8873 22.7348L80.5784 22.9028L80.7444 22.943C81.0305 23.0119 81.3167 23.0866 81.6028 23.1541C81.5332 21.2617 81.4641 19.3779 81.3954 17.5027V17.5085ZM69.3938 0.880418H67.7713V0.975177C67.7379 1.7821 67.7055 2.58903 67.674 3.39595L67.6282 4.67669C67.611 5.08924 67.5944 5.50037 67.5781 5.91005L67.4794 8.32938C67.4794 8.36097 67.4794 8.39399 67.4794 8.42701L67.3764 10.9468H67.322C67.2381 10.0959 67.1541 9.24734 67.0702 8.40117C66.9863 7.555 66.9023 6.71266 66.8184 5.87415C66.7354 5.03756 66.6524 4.20192 66.5694 3.36723C66.4864 2.53255 66.4034 1.70361 66.3205 0.880418H62.0037L61.8878 3.27104C61.8478 4.06839 61.8087 4.86525 61.7705 5.66165L61.6546 8.05227C61.6146 8.85058 61.5755 9.64888 61.5373 10.4472H61.523H61.5087H61.4944H61.4801C61.3999 9.64122 61.3203 8.83766 61.2411 8.03648C61.1619 7.2353 61.0828 6.43698 61.0036 5.64154C60.9244 4.84611 60.8457 4.05259 60.7675 3.26099C60.6893 2.46938 60.6111 1.68112 60.5329 0.89621H57.5053C57.6961 2.38849 57.8868 3.88747 58.0776 5.39315C58.2684 6.89883 58.4592 8.416 58.6499 9.94466C58.7453 10.7104 58.8407 11.4762 58.9361 12.2419C59.0315 13.0077 59.1269 13.7778 59.2223 14.5522L59.4798 16.624C59.5886 17.4855 59.6963 18.3527 59.8032 19.2257L60.7318 19.3348L61.6503 19.4483L62.1068 19.5071L62.5646 19.566L62.6605 19.5789C62.9338 19.6148 63.207 19.6507 63.4818 19.6895L63.6749 17.3017L63.6921 17.0907C63.7608 16.2292 63.8299 15.3653 63.8995 14.499C63.9692 13.6328 64.0383 12.7713 64.107 11.9146C64.1766 11.0531 64.2472 10.1916 64.3188 9.33013H64.3374H64.3545H64.3717H64.3889C64.5119 10.206 64.635 11.0842 64.758 11.9648C64.8811 12.8455 65.0046 13.7323 65.1286 14.6254C65.2526 15.5175 65.3766 16.4125 65.5006 17.3103C65.6246 18.2082 65.7496 19.1118 65.8755 20.0211L66.8684 20.1748L67.8528 20.3327C68.18 20.3863 68.5072 20.4409 68.8344 20.4964C69.162 20.5524 69.4883 20.6084 69.8173 20.6673C69.9204 19.0161 70.0234 17.3649 70.1264 15.7137L70.4311 10.7688C70.5332 9.12338 70.6343 7.47603 70.7345 5.82677C70.8346 4.17751 70.9348 2.5292 71.035 0.881855H69.4096L69.3938 0.880418ZM56.2963 12.6397C56.3134 13.5863 56.3301 14.534 56.3464 15.4826C56.3464 15.606 56.3464 15.7281 56.3464 15.8516C56.3464 15.975 56.3349 16.0985 56.3263 16.222C56.3177 16.3455 56.3049 16.4675 56.2906 16.5896C56.2762 16.7116 56.2605 16.8337 56.2419 16.9528C56.2333 17.016 56.2219 17.0763 56.209 17.1366C56.1738 17.3017 56.1211 17.4625 56.0516 17.6162C56.0073 17.7104 55.9552 17.8007 55.8956 17.8861C55.8406 17.9658 55.7778 18.0399 55.7082 18.1072C55.5704 18.2397 55.4094 18.3453 55.2332 18.4188C55.1874 18.4375 55.1416 18.4547 55.0901 18.4705C55.0386 18.4863 54.9928 18.4992 54.947 18.5107C54.8434 18.5346 54.7382 18.5509 54.6323 18.5595C54.5264 18.5695 54.4205 18.5767 54.3146 18.5839C54.2087 18.5911 54.1143 18.5954 54.0141 18.6011H53.9984L53.6793 18.6126H53.3617C53.2344 18.6126 53.1056 18.6126 52.9782 18.6126C52.8509 18.6126 52.7221 18.604 52.5934 18.5968C52.3373 18.5825 52.0811 18.5595 51.825 18.5293C51.5689 18.4992 51.3128 18.4604 51.0567 18.413C50.8006 18.3657 50.5459 18.3097 50.2898 18.2436C50.2168 18.2249 50.1467 18.2048 50.0766 18.1819C49.8818 18.1194 49.6946 18.0351 49.5186 17.9306C49.3033 17.8004 49.1125 17.6332 48.9548 17.4367C48.7948 17.2321 48.6701 17.0021 48.5857 16.7561C48.4877 16.4732 48.4234 16.1797 48.394 15.8817C48.3839 15.7869 48.3754 15.6936 48.3668 15.5946C48.3582 15.4955 48.3525 15.4065 48.3467 15.3074C48.341 15.2083 48.3353 15.1193 48.3324 15.0202C48.3296 14.9212 48.3324 14.8321 48.3253 14.7331L48.3167 14.0539L48.3081 13.3748V13.3604L48.2952 12.0194C48.2952 11.5686 48.2852 11.1191 48.2809 10.6683C48.2766 10.2175 48.2809 9.76949 48.268 9.32009C48.2552 8.87068 48.258 8.39112 48.2537 7.92735C48.2494 7.46359 48.2437 7.00125 48.2394 6.53892C48.2351 6.07659 48.2294 5.61571 48.2266 5.15338C48.2237 4.69105 48.2194 4.23159 48.218 3.7707C48.218 3.67737 48.218 3.5826 48.218 3.48353C48.218 3.38446 48.2266 3.29401 48.2337 3.19637C48.2337 3.14756 48.2437 3.09874 48.248 3.05279L48.2609 2.91926C48.2723 2.82594 48.2838 2.73261 48.2981 2.64072C48.3224 2.47107 48.3631 2.3042 48.4197 2.14249C48.4388 2.09176 48.4588 2.0439 48.4798 1.99891C48.5594 1.8173 48.6687 1.65035 48.8032 1.50499C48.935 1.36422 49.0898 1.24718 49.261 1.15896C49.4454 1.06409 49.6418 0.995008 49.8448 0.953645L50.0837 0.909136L50.3227 0.871803L50.5616 0.84596L50.802 0.820116C50.9622 0.807194 51.1225 0.798579 51.2827 0.792836C51.443 0.787093 51.6047 0.792836 51.7649 0.792836H51.9881H52.2113L52.4346 0.800013H52.6577C52.8008 0.800013 52.9439 0.810063 53.087 0.817242C53.2301 0.824421 53.3731 0.835911 53.5162 0.847397C53.6593 0.858884 53.8024 0.876114 53.9455 0.893344C54.0099 0.901959 54.0728 0.914877 54.1372 0.924927C54.2016 0.934978 54.2889 0.946464 54.3647 0.960823C54.4648 0.97885 54.5634 1.00477 54.6594 1.03835C54.7515 1.06957 54.8409 1.10798 54.927 1.15322C55.0526 1.2199 55.1698 1.30135 55.2761 1.39588C55.3105 1.42746 55.3448 1.46049 55.3777 1.49495L55.3891 1.50786C55.4517 1.57371 55.5091 1.64427 55.5608 1.71893C55.588 1.75913 55.6152 1.80077 55.641 1.84385C55.6667 1.88692 55.691 1.93143 55.7139 1.97738C55.8098 2.17434 55.8818 2.38209 55.9286 2.59621C55.9429 2.65938 55.9543 2.72543 55.9672 2.79004C55.9801 2.85465 55.9944 2.91926 56.0058 2.9853C56.0301 3.11596 56.0502 3.24663 56.0673 3.37872C56.0845 3.51082 56.0988 3.64434 56.1103 3.77644C56.1217 3.90853 56.1274 4.04062 56.1317 4.17272C56.1537 5.10504 56.1746 6.03831 56.1947 6.97254C56.2147 7.90677 56.2338 8.84484 56.2519 9.78672C56.2653 10.7411 56.2801 11.6901 56.2963 12.6339V12.6397ZM52.9053 15.0963C52.9053 14.6469 52.8924 14.199 52.8852 13.7495L52.8638 12.4071C52.8571 11.9591 52.8504 11.5121 52.8438 11.066L52.8223 9.72929C52.8223 9.50817 52.8223 9.28706 52.8123 9.06738L52.8037 8.39543C52.7965 7.95176 52.7908 7.5081 52.7837 7.06443L52.7622 5.73775L52.7364 4.44553C52.7357 4.43693 52.7357 4.42828 52.7364 4.41968C52.7352 4.35152 52.7304 4.28345 52.7221 4.21579C52.7221 4.14687 52.7035 4.07221 52.6907 4.01047C52.6778 3.94873 52.662 3.87407 52.6449 3.80659C52.6277 3.73911 52.6105 3.67306 52.5905 3.60845C52.5905 3.60127 52.5905 3.59696 52.5905 3.59122C52.5763 3.54532 52.5545 3.50212 52.5261 3.46343C52.5122 3.44328 52.4959 3.42495 52.4775 3.40887C52.4599 3.3926 52.4407 3.37817 52.4202 3.3658C52.4002 3.35306 52.3791 3.34202 52.3573 3.33278C52.335 3.32389 52.312 3.31669 52.2886 3.31124C52.2418 3.29936 52.1938 3.29357 52.1455 3.29401C52.1055 3.29428 52.0657 3.29909 52.0268 3.30836L51.9896 3.31555L51.9223 3.34283C51.9012 3.35405 51.8812 3.36701 51.8622 3.38159C51.8235 3.41074 51.7909 3.44735 51.7664 3.48927C51.7399 3.53673 51.721 3.5881 51.7106 3.64147C51.6991 3.70321 51.6877 3.76495 51.6777 3.82669C51.6676 3.88843 51.6605 3.93581 51.6548 3.99181C51.654 3.99944 51.654 4.00715 51.6548 4.01478C51.6462 4.07796 51.6419 4.14114 51.6376 4.20431C51.6376 4.2359 51.6376 4.26748 51.6376 4.29907C51.6376 4.33066 51.6376 4.36225 51.6376 4.3924C51.6376 4.85282 51.6428 5.31371 51.6533 5.77508C51.6638 6.23645 51.67 6.6983 51.6719 7.16063C51.6791 7.62296 51.6848 8.08672 51.692 8.54905C51.6991 9.01138 51.7063 9.47802 51.712 9.94178C51.712 10.3582 51.7249 10.776 51.7306 11.1924C51.7363 11.6088 51.7435 12.028 51.7506 12.4458C51.7578 12.8636 51.7635 13.2829 51.7707 13.7022C51.7778 14.1214 51.7864 14.5421 51.795 14.9628C51.7959 15.019 51.7998 15.075 51.8064 15.1308C51.8064 15.1882 51.8207 15.2442 51.8307 15.3016C51.8408 15.3591 51.8536 15.4136 51.8679 15.4696C51.8822 15.5256 51.8994 15.5802 51.9166 15.6333C51.9352 15.6912 51.9633 15.7455 51.9996 15.7941C52.0169 15.8176 52.0366 15.8393 52.0583 15.8587C52.0785 15.8784 52.1006 15.8962 52.1241 15.9119C52.1724 15.9428 52.2249 15.9665 52.28 15.9822C52.3378 15.998 52.3975 16.0057 52.4574 16.0052H52.4989C52.5506 16.0033 52.6017 15.9936 52.6506 15.9765C52.6933 15.9604 52.732 15.9348 52.7636 15.9018C52.7974 15.8649 52.8241 15.8221 52.8423 15.7755C52.8658 15.7149 52.8821 15.6518 52.891 15.5874C52.8981 15.5486 52.9038 15.5084 52.9081 15.4682C52.9124 15.428 52.9081 15.3878 52.9181 15.3476C52.9282 15.3074 52.9181 15.2657 52.9181 15.2255L52.9053 15.0963Z" fill="#F5F2EC">
	</path>
</svg>
